<svg width="512" height="512" viewBox="0 0 512 512" fill="none" xmlns="http://www.w3.org/2000/svg">
  <defs>
    <linearGradient id="bg" x1="64" y1="48" x2="448" y2="464" gradientUnits="userSpaceOnUse">
      <stop stop-color="#0F172A"/>
      <stop offset="1" stop-color="#111827"/>
    </linearGradient>
    <linearGradient id="accent" x1="104" y1="392" x2="408" y2="120" gradientUnits="userSpaceOnUse">
      <stop stop-color="#06B6D4"/>
      <stop offset="0.5" stop-color="#6366F1"/>
      <stop offset="1" stop-color="#22C55E"/>
    </linearGradient>
    <filter id="glow" x="76" y="92" width="360" height="284" filterUnits="userSpaceOnUse" color-interpolation-filters="sRGB">
      <feGaussianBlur stdDeviation="12" result="blur"/>
      <feBlend in="SourceGraphic" in2="blur" mode="normal"/>
    </filter>
  </defs>
  <rect x="32" y="32" width="448" height="448" rx="96" fill="url(#bg)"/>
  <rect x="80" y="80" width="352" height="352" rx="64" stroke="rgba(255,255,255,0.12)" stroke-width="2"/>
  <g opacity="0.16">
    <circle cx="140" cy="136" r="84" fill="#06B6D4"/>
    <circle cx="384" cy="124" r="92" fill="#6366F1"/>
    <circle cx="392" cy="392" r="104" fill="#22C55E"/>
  </g>
  <g filter="url(#glow)">
    <path d="M112 332C152 332 168 270 200 270C228 270 240 310 268 310C300 310 312 188 348 188C375 188 384 230 400 246" stroke="url(#accent)" stroke-width="28" stroke-linecap="round" stroke-linejoin="round"/>
  </g>
  <rect x="112" y="124" width="288" height="224" rx="28" stroke="rgba(255,255,255,0.14)" stroke-width="10"/>
  <rect x="128" y="356" width="80" height="20" rx="10" fill="#22C55E" fill-opacity="0.85"/>
  <rect x="220" y="356" width="64" height="20" rx="10" fill="#06B6D4" fill-opacity="0.85"/>
  <rect x="296" y="356" width="96" height="20" rx="10" fill="#6366F1" fill-opacity="0.85"/>
</svg>
